<svg version="1.1" xmlns="http://www.w3.org/2000/svg" xmlns:xlink="http://www.w3.org/1999/xlink" x="0" y="0" viewBox="0 0 141.5 12.2" xml:space="preserve"><style>.st0{clip-path:url(#SVGID_2_)}.st0,.st1{fill:#fff}</style><defs><path id="SVGID_1_" d="M71.9 0h69.6v12.2H71.9z"/></defs><clipPath id="SVGID_2_"><use xlink:href="#SVGID_1_" overflow="visible"/></clipPath><path class="st0" d="M77.7 5c0-.1 0-.3.1-.4 1.3-.8 2.6-1.6 3.9-2.3.1 0 .2-.2.4-.1s.4.2.6.4c1.2.7 2.3 1.4 3.5 2 .2.2 0 .5.1.7 0 1.4 0 2.7.1 4.1 0 0 0 .1-.1.1-1.2.1-2.3.1-3.5.1h-4.9c-.2 0-.1-.3-.1-.4L77.7 5zm9.9 5.7V6.1c0-.1 0-.2.1-.3.3-.1.6 0 1-.1.1-.1.1-.3.1-.5-.1-.1 0-.2 0-.3-.1-.2.1-.5-.1-.7-.3-.2-.6-.4-.9-.5-.8-.4-1.6-.9-2.5-1.4-1.1-.6-2.2-1.2-3.2-1.9H82l-6.6 4c-.1.3 0 .6 0 1 0 .2-.1.4.1.5h.6c.1 0 .3-.1.4 0v4.5c0 .1-.1.2 0 .3h11.1z"/><path class="st0" d="M79.8 6.4c-.1 0-.1 0 0 0-.1-.4-.2-.8-.1-1.1 0 0 0-.1.1-.1h4.5v1.1c0 .1 0 .1-.1.1h-4.4zM84.1 7h.1V8.2h-4.5c-.1-.1-.1-.3-.1-.5 0-.3-.1-.5 0-.8h.1l4.4.1zM90.7 5.9h2.7v.6h-2.2V8h2.2v.5h-2.2v1.7h2.3v.6h-2.8zM96.4 12.2V7.3H96v.4c-.1-.1-.2-.3-.4-.4-.1-.1-.3-.1-.5-.1s-.4 0-.6.1c-.4.3-.6.9-.7 1.5 0 .6.1 1.3.4 1.6.3.3.6.5.8.5.3 0 .5-.1.6-.2l.3-.3v1.8h.5zM94.6 8c.1-.2.4-.3.6-.3.2 0 .4.2.5.4.2.4.2.8.2 1.2 0 .4-.1.6-.2.8-.1.2-.3.3-.6.3-.2 0-.5-.1-.6-.3-.1-.2-.2-.5-.2-.9.1-.5.1-.9.3-1.2M98.8 10.8v-.4c-.1.2-.2.3-.3.4-.1.1-.4.1-.6.1-.2 0-.4 0-.5-.1-.2-.1-.4-.4-.4-.8V7.3h.5v2.5c0 .3.1.5.2.6.1.1.2.1.3.1h.3c.5-.2.6-.7.6-1.2v-2h.5v3.5h-.6zM102.1 7.9c0-.3-.3-.6-.7-.7-.2-.1-.3-.1-.5-.1-.3 0-.4.1-.6.2-.3.2-.4.5-.4.7v.3h.4c0-.2 0-.6.6-.6.3 0 .7.1.7.4v.4c0 .2-.2.3-.2.3-.3.1-.5 0-1.1.2-.3 0-.6.2-.6.8 0 .7.4 1.1 1 1.1.4 0 .7-.3.9-.5 0 .2.2.5.4.5s.2 0 .4-.1v-.4h-.1c-.1 0-.2-.1-.2-.2V7.9zm-.5 1.8c0 .1-.3.7-.9.7-.3 0-.5-.2-.5-.6 0-.3.2-.4.3-.5.3-.1.8-.1 1.1-.3v.7zM102.8 5.9h.5v4.8h-.5zM107.8 8.5h-2v2.3h-.5V5.9h.5V8h2V5.9h.5v4.9h-.5zM111.4 9c0-1.5-.8-1.9-1.3-1.9s-1.3.3-1.3 1.9c0 1.5.8 1.9 1.3 1.9s1.3-.3 1.3-1.9m-.5 0c0 .6-.2 1.3-.8 1.3-.6 0-.8-.7-.8-1.3 0-.6.2-1.3.8-1.3.6 0 .8.8.8 1.3M113.7 10.8v-.4c-.1.2-.2.3-.3.4-.1.1-.4.1-.6.1-.2 0-.4 0-.5-.1-.2-.1-.4-.4-.4-.8V7.3h.5v2.5c0 .3.1.5.2.6.1.1.2.1.3.1h.3c.5-.2.6-.7.6-1.2v-2h.5v3.5h-.6zM115 9.7c0 .3.2.6.5.7h.4c.1 0 .3-.1.4-.2.1-.1.2-.3.2-.4 0-.2-.1-.4-.3-.4-.4-.1-.8-.2-1.1-.3-.2-.1-.4-.3-.4-.8 0-.7.5-1 1.1-1 .9 0 1.1.7 1.1 1.1h-.4c0-.2 0-.6-.7-.6-.3 0-.5.2-.6.4-.1.2 0 .4.1.5.2.1.4.2.7.2.2 0 .5.1.7.3.3.2.3.5.3.9 0 .3-.2.7-.5.8-.1.1-.3.1-.5.1h-.6c-.7-.2-.7-.8-.7-1.1h.3zM117.8 6.6h-.5v-.7h.5v.7zm0 4.2h-.5V7.3h.5v3.5zM118.9 7.3v.4c.1-.2.2-.3.3-.4.1-.1.4-.2.6-.2.2 0 .4.1.5.1.1.1.4.3.4.8v2.7h-.5V8.3c0-.4-.3-.7-.6-.7-.4 0-.8.3-.8 1.2v1.9h-.5V7.3h.6zM123.2 7.3v.4c-.2-.4-.5-.5-.8-.5-.5 0-.9.5-.9.5-.2.4-.3 1-.3 1.5 0 .6.2 1.1.5 1.4.2.2.4.3.6.3.4 0 .8-.3.9-.6 0 .3 0 .4-.1.7 0 .2-.1.4-.3.6-.1.1-.3.1-.4.1-.1 0-.2 0-.4-.1-.3-.2-.3-.4-.3-.5h-.5c0 .3.1.7.6 1 .2.1.4.1.6.1.2 0 .4-.1.5-.1.6-.2.7-1.1.7-1.9V7.3h-.4zm-.3 2.8c-.2.2-.4.3-.6.3-.2 0-.4-.1-.6-.4-.1-.3-.2-.6-.2-.9 0-.3.1-.6.1-.8.2-.4.4-.5.7-.5.2 0 .5.1.5.2.5.4.5 1.6.1 2.1M126.2 5.9v4.3h2v.6h-2.5V5.9zM130.9 9.2c0-.6 0-1.1-.3-1.6-.2-.3-.5-.5-.8-.5-.4 0-.7.1-1 .5-.2.3-.3.8-.4 1.3 0 .5.1 1 .3 1.3.2.4.6.6 1 .6s.7-.2 1-.5c.2-.2.2-.5.3-.7h-.5c-.1.2-.2.7-.8.7-.3 0-.5-.2-.6-.4-.2-.3-.2-.5-.2-.8h2zm-2-.5c0-.4.2-.7.2-.8.2-.3.4-.3.6-.3.2 0 .4.2.5.3.1.1.2.5.2.8h-1.5zM131.9 7.3v.4c.1-.2.2-.3.3-.4.1-.1.4-.2.6-.2.2 0 .4.1.5.1.1.1.4.3.4.8v2.7h-.5V8.3c0-.4-.3-.7-.6-.7-.4 0-.8.3-.8 1.2v1.9h-.5V7.3h.6zM136.2 5.9v1.8c0-.1-.1-.2-.3-.3-.1-.1-.4-.2-.6-.2-.3 0-.6.1-.8.5-.3.4-.4 1-.4 1.6 0 .6.3 1.2.7 1.5.2.1.4.1.6.1s.4 0 .5-.1c.2-.1.3-.3.4-.4v.4h.4V5.9h-.5zm-1.4 4.2c-.4-.6-.3-1.6 0-2 .1-.2.4-.4.6-.3.2 0 .4.1.6.3.2.3.4 1.2 0 1.9-.1.2-.3.4-.5.4-.3 0-.5-.1-.7-.3M139.6 9.2c0-.6 0-1.1-.3-1.6-.2-.3-.5-.5-.8-.5-.4 0-.7.1-1 .5-.2.3-.3.8-.4 1.3 0 .5.1 1 .3 1.3.2.4.6.6 1 .6s.7-.2 1-.5c.2-.2.2-.5.3-.7h-.5c-.1.2-.2.7-.8.7-.3 0-.5-.2-.6-.4-.2-.3-.2-.5-.2-.8h2zm-2-.5c0-.4.2-.7.2-.8.2-.3.4-.3.6-.3.2 0 .4.2.5.3.1.1.2.5.2.8h-1.5zM140.1 7.3h.5v.6c.2-.4.4-.6.6-.6h.3v.6c-.2 0-.3 0-.4.1-.3.2-.5.5-.5 1.1v1.8h-.5V7.3z"/><g><path class="st1" d="M.6 6.6v4.2H0V6.1h1l1.2 4 1.2-4h1v4.8h-.6V6.6l-1.3 4.2h-.6L.6 6.6zM7.8 9.4H6c0 .4.1.7.2.9.1.2.3.2.5.2s.3-.1.4-.2c.1-.1.2-.3.2-.5h.6c0 .4-.1.6-.3.8-.2.2-.5.3-.8.3-.2 0-.4 0-.5-.1-.1 0-.3-.1-.4-.2-.1-.1-.2-.3-.3-.5s-.2-.5-.2-.8v-.6c0-.2 0-.3.1-.5s.1-.3.2-.4.2-.2.4-.2.3-.1.6-.1c.5 0 .8.1.9.4.2.3.3.7.3 1.2v.3zM6 9h1.3c0-.4-.1-.7-.2-.9-.1-.1-.3-.2-.5-.2s-.4.1-.5.2c-.1.2-.1.5-.1.9zM10.9 10.9h-.5V8.6c0-.4-.2-.6-.5-.6-.1 0-.2 0-.3.1-.1-.1-.2 0-.2.1-.1.1-.2.3-.2.4v2.2h-.5V8.2v-.7h.6V8c.1-.3.4-.5.8-.5.2 0 .3 0 .5.1.1.1.3.2.3.3.1-.3.4-.4.8-.4.6 0 .9.3.9.9v2.5H12V8.6c0-.4-.2-.6-.5-.6h-.2s-.1 0-.2.1-.2.3-.2.6v2.2zM14.1 10.5v.4h-.5V6.1h.5v1.8c.2-.3.4-.4.7-.4.1 0 .3 0 .4.1.1 0 .2.1.3.1l.2.2c.1.1.1.2.1.3s.1.2.1.3v.7c0 .4 0 .6-.1.9-.1.2-.1.4-.3.5-.1.1-.2.2-.3.2-.1 0-.2.1-.4.1-.3 0-.5-.1-.7-.4zm0-1.4c0 .4 0 .8.1.9.1.3.3.5.6.5h.3c.1 0 .1-.1.2-.1 0 0 .1-.1.1-.2s.1-.1.1-.2v-.2-.2-.2c0-.5 0-.8-.1-1-.2-.4-.4-.5-.7-.5-.1 0-.2 0-.3.1-.1 0-.1.1-.2.2 0 .1-.1.1-.1.2s0 .2-.1.3V9c.1-.1.1 0 .1.1zM19.2 9.4h-1.9c0 .4.1.7.2.9.1.2.3.2.5.2s.3-.1.4-.2c.1-.1.2-.3.2-.5h.6c0 .4-.1.6-.3.8-.2.2-.5.3-.8.3-.2 0-.4 0-.5-.1-.1 0-.3-.1-.4-.2-.1-.1-.2-.3-.3-.5s-.1-.5-.1-.9v-.6c0-.2 0-.3.1-.5s.1-.3.2-.4.2-.2.4-.2.3-.1.6-.1c.5 0 .8.1.9.4.2.3.3.7.3 1.2v.4zM17.3 9h1.3c0-.4-.1-.7-.2-.9-.1-.1-.3-.2-.5-.2s-.4.1-.5.2c0 .2-.1.5-.1.9zM20.6 7.6v.5c.1-.2.2-.4.4-.5.1-.1.4-.1.7-.1V8h-.1-.2c-.5 0-.8.3-.8.9v2h-.5V7.6h.5zM24.4 10.9h-.6V6.1h2.4v.5h-1.8v1.5H26v.5h-1.7v2.3zM26.7 10.9V6.1h1.5c.6 0 1.1.2 1.3.7.1.3.2.8.2 1.5 0 1-.1 1.6-.3 1.9-.3.4-.8.6-1.6.6h-1.1zm.6-4.3v3.7h.6c.4 0 .7-.1.9-.3s.3-.6.3-1.1V8c0-.5-.1-.8-.2-1-.2-.2-.4-.3-.7-.3h-.9zM31.4 6.1v4.8h-.6V6.1h.6zM35.3 7.4h-.6c0-.3 0-.6-.1-.7l-.2-.2c-.1 0-.2-.1-.3-.1-.1 0-.3 0-.4.1s-.2.1-.2.2-.1.1-.1.1V9.2c0 .3 0 .5.1.7s.1.3.2.4c.1.1.2.1.3.2h.5c.1 0 .1-.1.2-.1.1-.1.2-.2.2-.3.1-.1.1-.3.1-.5h.6c0 .2 0 .4-.1.6 0 .2-.1.3-.1.4-.1.1-.1.2-.2.3-.1.1-.2.1-.3.2-.1 0-.2.1-.3.1h-.2-.8c-.1 0-.2-.1-.3-.1s-.2-.1-.3-.2c-.1-.1-.2-.2-.2-.3s-.1-.3-.1-.5-.1-.4-.1-.7V7.7c0-.6.1-1.1.4-1.3.2-.2.6-.4 1.1-.4.5 0 .8.1 1 .4s.2.6.2 1zM39.8 6.6v4.2h-.6V6.1h1l1.2 4 1.2-4h1v4.8H43V6.6l-1.3 4.2h-.6l-1.3-4.2zM47 9.4h-1.9c0 .4.1.7.2.9.1.2.3.2.5.2s.3-.1.4-.2c.1-.1.2-.3.2-.5h.6c0 .4-.1.6-.3.8-.2.2-.5.3-.8.3-.2 0-.4 0-.5-.1-.1 0-.3-.1-.4-.2-.1-.1-.2-.3-.3-.5s-.1-.5-.1-.9v-.6c0-.2 0-.3.1-.5s.1-.3.2-.4.2-.2.4-.2.3-.1.6-.1c.5 0 .8.1.9.4.1.3.2.7.2 1.3v.3zM45.1 9h1.3c0-.4-.1-.7-.2-.9 0-.1-.2-.2-.4-.2s-.4.1-.5.2c-.1.2-.1.5-.2.9zM50.1 10.9h-.5V8.6c0-.4-.2-.6-.5-.6-.1 0-.2 0-.3.1-.1 0-.2.1-.2.2-.1.1-.1.3-.1.5V11H48V8.2v-.7h.6V8c.1-.3.4-.5.8-.5.2 0 .3 0 .5.1.1.1.3.2.3.3.1-.3.4-.4.8-.4.6 0 .9.3.9.9v2.5h-.5V8.6c0-.4-.2-.6-.5-.6h-.2s-.1 0-.2.1-.2.3-.2.6v2.2zM53.3 10.5v.4h-.5V6.1h.5v1.8c.2-.3.4-.4.7-.4.1 0 .3 0 .4.1.1 0 .2.1.3.1l.2.2c.1.1.1.2.1.3s.1.2.1.3v.7c0 .4 0 .6-.1.9-.1.2-.1.4-.3.5-.1.1-.2.2-.3.2-.1 0-.2.1-.4.1-.3 0-.5-.1-.7-.4zm0-1.4c0 .4 0 .8.1.9.1.3.3.5.6.5h.3c.1 0 .1-.1.2-.1 0 0 .1-.1.1-.2s.1-.1.1-.2v-.2-.2-.2c0-.5 0-.8-.1-1-.1-.2-.3-.3-.5-.3-.1 0-.2 0-.3.1-.1 0-.1.1-.2.2 0 .1-.1.1-.1.2s0 .2-.1.3v.3c-.1-.3-.1-.2-.1-.1zM58.4 9.4h-1.9c0 .4.1.7.2.9.1.2.3.2.5.2s.3-.1.4-.2c.1-.1.2-.3.2-.5h.6c0 .4-.1.6-.3.8-.2.2-.5.3-.8.3-.2 0-.4 0-.5-.1-.1 0-.3-.1-.4-.2-.1-.1-.2-.3-.3-.5s-.1-.5-.1-.9v-.6c0-.2 0-.3.1-.5s.1-.3.2-.4.2-.2.4-.2.3-.1.6-.1c.5 0 .8.1.9.4.2.3.3.7.3 1.2v.4zM56.5 9h1.3c0-.4-.1-.7-.2-.9-.1-.1-.3-.2-.5-.2s-.4.1-.5.2c0 .2-.1.5-.1.9zM59.8 7.6v.5c.1-.2.2-.4.4-.5.1-.1.4-.1.7-.1V8h-.1-.2c-.5 0-.8.3-.8.9v2h-.5V7.6h.5zM63 10.9V6.1h1.5c.6 0 1.1.2 1.3.7.1.3.2.8.2 1.5 0 1-.1 1.6-.3 1.9-.3.4-.8.6-1.6.6H63zm.6-4.3v3.7h.6c.4 0 .7-.1.9-.3s.3-.6.3-1.1V8c0-.5-.1-.8-.2-1-.2-.2-.4-.3-.7-.3h-.9zM67.7 6.1v4.8h-.6V6.1h.6zM69.4 10.9h-.6V6.1h2.4v.5h-1.8v1.5h1.7v.5h-1.7v2.3z"/></g></svg>
