<svg version="1.1" xmlns="http://www.w3.org/2000/svg" x="0" y="0" viewBox="0 0 220.5 59.1" xml:space="preserve">
<style>
.st0,.st1{fill:#008dd1}
.st1{fill-rule:evenodd;clip-rule:evenodd}
.st3{fill:#0b4e7c}
.swoosh{fill:#f7c11c}

.st0,.st1,.st3,.swoosh{fill:#fff}
</style><path class="st0" d="M26 23.1l1.2-5.5-.1-.2h-.6c-1.1 0-2.5.8-3.7 3.2l.6-3.1-.2-.3c-2.1.5-2.6.6-4.6 1l-.2.2c-.3 2.5-.5 4-1.3 8.7-.5 2.7-1 5.4-1.5 8.2l.1.2h4.6l.2-.2c.4-2.7.9-6.5 1.3-8.8.3-1.5.6-3.7 2.5-3.7.5 0 1.2.2 1.5.5l.2-.2zM30 35.3c.3-2.6.5-4.6 1.3-9.2.5-2.8 1-5.7 1.6-8.6l-.1-.3-4.8 1-.2.2c-.2 2.5-.3 3.7-1.2 8.5-.6 3.6-1.1 5.6-1.6 8.3l.1.2h4.6l.3-.1zM87 35.3c1.8-5.2 2.1-6 4.6-13.2l1.5-4.2-.1-.2-3.1.1-.2.2-1.5 5-1.3 4.1-.9 3.1.1-3v-3.5l.1-5.8-.2-.2-4.6.1-.3.2-1.6 5.5-1.1 3.7-.9 3.1.1-3.3v-9.2l-.1-.2-4 .4-.2.3c.5 11 .6 12.9.6 17l.1.2h4.5l.2-.2 1.3-4.1 1.3-4.1 1.2-4.1v5l-.1 7.2.1.2h4.4l.1-.1zM111.8 31.7c-.5.2-.8.3-1.2.3-1.4 0-1.3-1.1-1.3-1.6.1-.9.4-2.7.6-4.1l.9-4.7 2.4.1.2-.2.8-3.6-.1-.2h-2.6l1-5.6-.2-.2c-1.9.7-2.4.8-4.4 1.4l-.1.2-.7 4.2-1.5-.1-.2.2-.8 3.6.1.2 1.7-.1-1 5.3c-.2.8-.3 1.7-.5 2.5-.5 3.1-1 6.4 3.1 6.4 1 0 1.9-.2 2.9-.4l.2-.2.8-3.4h-.1zM135 23.1l1.2-5.5-.1-.2h-.6c-1.1 0-2.5.8-3.7 3.2l.6-3.1-.2-.3c-2.1.5-2.6.6-4.6 1l-.2.2c-.3 2.5-.5 4-1.3 8.7-.5 2.7-1 5.4-1.5 8.2l.1.2h4.6l.2-.2c.4-2.7.9-6.5 1.3-8.8.3-1.5.6-3.7 2.5-3.7.5 0 1.2.2 1.5.5l.2-.2zM144.9 21.2c-2-1.2-3.1-1.8-2.8-3.3.2-1 1.2-2.3 2.9-2.3 2 0 3 1 3.9 1.9l.3-.1 1-4.4-.1-.2c-1-.6-2.1-1.2-4.7-1.2-5 0-7.3 3.5-7.9 7.1-.7 4 1.5 5.5 2.9 6.4l.8.5c1.7 1 2.9 1.8 2.6 3.6-.2 1.3-1.4 2.8-3.7 2.8-2.4 0-3.5-1.3-4.2-2.1l-.3.1-1 4.7.1.3c.3.1.5.3.8.4.6.3 2 .8 4 .8.8 0 2.8-.1 4.6-1 2.5-1.4 3.9-3.9 4.3-6.7.3-1.9.1-3.9-1.1-5.3-.6-.7-1.2-1.1-1.8-1.4l-.6-.6zM169 35.3c1.4-3.3 2.3-5.4 3.2-7.5 1.2-2.7 3.1-7 4.3-9.8l-.1-.2-3.7.1-.2.2c-.8 2.2-.9 2.7-1.9 5.3l-2.5 6.6v-3.6l-.1-2.6c-.1-3.1-.1-3.7-.1-5.9l-.2-.2c-2.1.3-2.7.3-4.7.3l-.2.3c1.3 13.1 1.3 14.3 1.5 17l.1.2h4.3l.3-.2zM179 35.3c.3-2.6.5-4.5 1.3-9.1.5-2.8 1-5.7 1.5-8.5l-.1-.3-4.7 1-.2.2c-.2 2.5-.3 3.7-1.2 8.4-.6 3.6-1.1 5.6-1.6 8.3l.1.2h4.6l.3-.2zM193.8 35.3c.4-2.9.5-3.9 1-7.1l.4-2.6c.5-3.2.8-4.7.3-6.1-.5-1.7-2-2-2.9-2-1.6 0-3.2 1.1-4.6 2l.4-1.8-.2-.2c-2.1.5-2.6.6-4.6 1l-.2.2c-.3 2.9-.5 5-1.4 10.4l-1.2 6.3.1.2h4.4l.2-.2c.7-5.1.9-6.4 1.9-12.4.6-.5 1.4-1 2.2-1 1.5 0 1.3 2 1.1 3.2-.1 1.1-.9 5.7-1.1 6.9l-.6 3.3.1.2h4.3l.4-.3zM215.4 24c-.8-.4-1.5-.8-1.3-1.7.1-.4.5-1.5 2.1-1.5s2.5.9 3.1 1.4l.3-.1.9-3.6-.1-.2c-1.2-.4-2.2-.8-3.9-.8-1.3 0-3.9.1-5.7 2.6-.4.6-1 1.6-1.2 2.9-.6 3.6 1.4 4.6 2.5 5.2l.9.5c.7.3 1.7.8 1.5 2-.1.8-.9 1.7-2.4 1.7-.7 0-1.8-.3-2.7-.9-.4-.3-.6-.5-.9-.9l-.3.1c-.4 1.7-.4 2.1-.8 3.8l.1.3c1.2.6 2.2 1.1 4.2 1.1s6.1-.5 7.4-5.2c.1-.3.1-.5.2-.7.6-3.7-1.2-4.6-2.6-5.3l-1.3-.7z"/><path class="st1" d="M199.6 36.3l-1-.3c-.4.5-1 1.1-1.1 2.2-.2 1.2.2 2.6 2.2 2.6 1.7 0 2.6-1 2.8-2 .1-.7-.1-1.1-.3-1.3-.4-.4-.4-.4-2.6-1.2m4.4-12.4c.3-1.5 0-2.9-1.2-2.9-1 0-2 1.1-2.2 2.7 0 .2-.2 1-.1 1.7.2 1.3 1.1 1.4 1.3 1.4.3 0 1.7-.2 2.2-2.9m-3.2 6l-.6 1.2c1 .5 1.2.6 2.5.8l.6.1c1.6.5 4.4 1.3 3.7 5.5-.6 3.2-3.3 6.3-8.1 6.3-1 0-3-.1-4.3-1.4-.8-.9-1.3-2.2-1-3.8.4-2.2 1.8-3.4 2.8-4.2l-1-1 .1-.3c.8-1.4 1.5-2.2 2.5-4-.6-.5-1-.8-1.5-1.9-.3-.8-.4-1.9-.2-3.2.4-2.5 1.8-3.9 2.5-4.5 2-1.8 4.5-1.7 6.4-1.7h1.2c1.7 0 2 0 4.1-.1l.1.2-.8 3.3-.2.2-1.6-.1c.2.6.5 1.3.2 2.9-.6 3.2-2.8 4.7-4.3 5.3-1.5.5-2.3.4-3.1.4M50.6 36.3l-1-.3c-.4.5-1 1.1-1.1 2.2-.2 1.2.2 2.6 2.2 2.6 1.7 0 2.6-1 2.8-2 .1-.7-.1-1.1-.3-1.3-.4-.4-.4-.4-2.6-1.2M55 23.9c.3-1.5 0-2.9-1.2-2.9-1 0-2 1.1-2.2 2.7 0 .2-.2 1-.1 1.7.2 1.3 1.1 1.4 1.3 1.4.3 0 1.7-.2 2.2-2.9m-3.2 6l-.6 1.2c1 .5 1.2.6 2.5.8l.6.1c1.6.5 4.4 1.3 3.7 5.5-.6 3.2-3.3 6.3-8.1 6.3-1 0-3-.1-4.3-1.4-.8-.9-1.3-2.2-1-3.8.4-2.2 1.8-3.4 2.8-4.2l-1-1 .1-.3c.8-1.4 1.5-2.2 2.5-4-.6-.5-1-.8-1.5-1.9-.3-.8-.4-1.9-.2-3.2.4-2.5 1.8-3.9 2.5-4.5 2-1.8 4.5-1.7 6.4-1.7h1.2c1.7 0 2 0 4.1-.1l.1.2-.8 3.3-.2.2-1.6-.1c.2.6.5 1.3.2 2.9-.6 3.2-2.8 4.7-4.3 5.3-1.5.5-2.3.4-3.1.4M123.7 30.6c-1.1.7-2.4 1.4-4.2 1.4-1.5 0-2.5-.6-2.9-1.8-.3-.7-.2-1.4-.2-2l8.3-.2.2-.2c.3-1.6.5-3.3.5-5-.2-4-2-4.8-2.9-5-.6-.2-1.2-.3-1.8-.3-4 0-7.3 3.4-8.3 9.2-.3 1.6-.3 3.2-.1 4.4.7 4.5 4.1 4.9 5.9 4.9 2.1 0 3.1-.5 4.6-1.2l.2-.3.8-3.8-.1-.1zm-6.7-6c.3-1 .7-2.4 1.8-3.2.4-.3.7-.4 1.1-.4.8 0 1.3.6 1.4 1.2.2.7.1 1.5 0 2.3l-4.3.1zM42.2 21.7c-.4-.1-.6-.1-.9-.1-3 0-4.1 2.9-4.5 5.5-.1.7-.8 4.8 1.8 4.8.7 0 1.4-.4 2-.8.7-4.1.9-5 1.6-9.4m2.2 13.6l-.2.2h-4.4l-.1-.2.3-1.2c-.8.7-1.9 1.8-3.8 1.8-.9 0-2.3-.3-3.2-1.5-1.3-1.6-1.4-4.3-1-6.9.6-3.4 1.8-6.2 4-8 2.4-2 4.9-1.9 6.9-1.9.7-3.8.7-4.7.7-4.7l4.5-1.3.2.2c-.9 4.4-.9 5.2-2.4 14-.8 4.5-1.1 6.5-1.5 9.5M98.3 30.9l.7-4c-1.9.3-4 .7-4.4 2.9-.2 1.4.4 2 1.4 2 .8 0 1.6-.5 2.3-.9m5.2-5.3l-.5 2.5c-.5 3.1-.7 4-1.1 7.2l-.2.2h-4.2l-.1-.2.2-1.1c-.7.6-2 1.8-4 1.8-2.6 0-4.2-2.3-3.6-5.9.3-1.5 1.1-3.4 2.8-4.6 1.8-1.2 3.4-1.6 6.6-2.1.1-.5.1-1.1-.1-1.4-.3-.4-.6-.6-1.6-.6-1.8 0-3.7.9-4.7 1.3l-.2-.1.8-3.6.2-.3c1.6-.6 3.1-1.1 5.4-1.1 3.4 0 4.2 1.3 4.6 2.4.5 1.3.3 2.6-.3 5.6M156.4 30.9l.7-4c-1.9.3-4 .7-4.4 2.9-.2 1.4.4 2 1.4 2 .9 0 1.7-.5 2.3-.9m5.3-5.3l-.5 2.5c-.5 3.1-.7 4-1.1 7.2l-.2.2h-4.2l-.1-.2.2-1.1c-.7.6-2 1.8-4 1.8-2.6 0-4.2-2.3-3.6-5.9.3-1.5 1.1-3.4 2.8-4.6 1.8-1.2 3.4-1.6 6.6-2.1.1-.5.1-1.1-.1-1.4-.3-.4-.6-.6-1.6-.6-1.8 0-3.7.9-4.7 1.3l-.2-.1.8-3.6.2-.3c1.6-.6 3.1-1.1 5.4-1.1 3.4 0 4.2 1.3 4.6 2.4.4 1.3.2 2.6-.3 5.6M4.8 35.5c2.5.1 5.5.1 7.8-1.6 2-1.6 2.9-3.8 3.2-5.7.4-2.1 0-4.1-1.4-5.1-.5-.3-1-.5-1.6-.6 1-.5 2.2-1.1 3.2-2.8.4-.8.7-1.6.8-2.3.2-1.1.2-2.5-.4-3.7-.9-1.5-2.5-1.9-5.1-1.9-.9 0-2.5 0-3.5.1L4 12v.1c-.4 3.2-.6 4.5-1.4 9.1C1.7 25.9.9 30.6 0 35.4l.2.1h4.6zm1.6-10.2c2-.1 3.2-.1 3.9.5.7.6.8 1.7.6 2.7-.3 1.5-1.1 2.4-2.2 2.9-.9.3-2.3.3-3.4.3l1.1-6.4zm1.7-9.8h1.8c1.4 0 2.6.6 2.3 2.8-.3 1.8-1.5 2.5-1.8 2.7-.7.4-2.1.4-3.2.4l.9-5.9z"/><path class="st1" d="M70.8 30.6c-1.1.7-2.4 1.4-4.2 1.4-1.5 0-2.5-.6-2.9-1.8-.3-.7-.2-1.4-.2-2l8.3-.2.2-.2c.3-1.6.5-3.3.5-5-.2-4-2-4.8-2.9-5-.6-.2-1.2-.3-1.8-.3-4 0-7.3 3.4-8.3 9.2-.3 1.6-.3 3.2-.1 4.4.7 4.5 4.1 4.9 5.9 4.9 2.1 0 3.1-.5 4.6-1.2l.2-.3.8-3.8-.1-.1zm-6.7-6c.3-1 .7-2.4 1.8-3.2.4-.3.7-.4 1.1-.4.8 0 1.3.6 1.4 1.2.2.7.1 1.5 0 2.3l-4.3.1z"/><path class="swoosh" d="M183.1 11.2C147.5-2.9 76.4-4.3 29.7 10.5l-.1.8C82.4.1 144 1.7 183 11.8l.1-.6z"/><path class="st3" d="M97 55.5c-.4 2-1.4 3.6-4.2 3.6-2.8 0-3.1-1.6-2.6-3.6l1.5-6.9h2.4l-1.6 7.7c-.2.8 0 1.3.7 1.3s1.1-.5 1.2-1.3l1.6-7.7h2.4L97 55.5zM100.1 48.6h2.8l.6 6.7 1.5-6.7h2.2L105 58.9h-2.7l-.7-7.1-1.5 7.1h-2.2zM112.6 52.2c.3-1.5.3-2.2-.5-2.2-1 0-1.3.9-1.8 3.6-.7 3.1-.7 3.9.3 3.9.9 0 1.2-1 1.6-2.6h2.4l-.1.4c-.5 2.2-1.5 3.9-4.5 3.9-3.1 0-2.9-2.3-2.2-5.5.6-2.7 1.3-5.3 4.7-5.3 2.1 0 3.1.9 2.6 3.4l-.1.4h-2.4zM118.3 59.1c-3.2 0-3.2-2.1-2.5-5.4.7-3.3 1.6-5.4 4.8-5.4 3.5 0 3.1 2.5 2.5 5.4-.7 2.9-1.4 5.4-4.8 5.4m.3-1.6c1 0 1.3-.9 1.9-3.8.6-2.8.7-3.8-.3-3.8s-1.3.9-1.9 3.8c-.6 2.9-.7 3.8.3 3.8M125.8 48.6h3.6l-.2 6.8 2.7-6.8h3.5l-2.2 10.3H131l1.7-8h-.1l-3.2 8h-1.9v-8l-1.7 8h-2.2zM137.4 48.6h3.5l-.1 6.8 2.7-6.8h3.5l-2.2 10.3h-2.3l1.7-8-3.3 8H139l.1-8-1.8 8h-2.1zM150 59.1c-3.2 0-3.2-2.1-2.5-5.4.7-3.3 1.6-5.4 4.8-5.4 3.5 0 3.1 2.5 2.5 5.4-.6 2.9-1.3 5.4-4.8 5.4m.4-1.6c1 0 1.3-.9 1.9-3.8.6-2.8.7-3.8-.3-3.8s-1.3.9-1.9 3.8c-.6 2.9-.7 3.8.3 3.8M157.5 48.6h2.8l.6 6.7 1.4-6.7h2.3l-2.2 10.3h-2.8l-.6-7.1-1.5 7.1h-2.2zM170 48.6h3.4c1.5 0 2.6.7 2.3 2.5-.3 1.3-.9 2-2 2.4 1.1.2 1.7.9 1.3 2.6-.4 1.7-1.8 2.8-3.8 2.8h-3.3l2.1-10.3zm1.3 9.1c1 0 1.7-.6 1.9-1.8.2-1.1-.3-1.8-1.2-1.8h-1.5l-.8 3.6h1.6zm.7-4.8c1 0 1.7-.7 1.9-1.6.3-1.2-.4-1.5-1.4-1.5h-1.2l-.7 3.1h1.4zM180 48.6h2.1l.5 10.4h-1.7l-.1-2.5h-3l-1.2 2.5h-1.7l5.1-10.4zm.9 6.5l-.1-5.1-2.3 5.1h2.4zM185.9 48.6h2l1.4 7.7 1.6-7.7h1.6l-2.2 10.3h-2L187 51h-.1l-1.6 7.9h-1.6zM194.5 48.6h1.7l-1 4.5 4.1-4.5h1.9l-4 4.3 2.1 6h-1.9l-1.5-4.6-1.2 1.3-.7 3.3h-1.7zM202.3 48.6h1.6l-2.2 10.3h-1.6zM205.9 48.6h2l1.3 7.7h.1l1.6-7.7h1.6l-2.2 10.3h-2l-1.4-7.9-1.7 7.9h-1.5zM217.7 57.7c-.7 1-1.4 1.4-2.6 1.4-2.3 0-2.7-1.7-1.9-5.4.8-3.7 2.2-5.4 4.6-5.4 2.6 0 2.6 2 2.4 3v.2h-1.6l.1-.2c.2-.8 0-1.7-1.1-1.7-1.2 0-2 .8-2.7 4.1-.7 3.3-.3 4.2.8 4.2 1.3 0 1.9-.9 2.4-3.2h-1.7l.3-1.2h3.3l-1.2 5.5h-1.2l.1-1.3z"/><path fill="none" d="M0 59.1h220.5V0H0v59.1"/></svg>
